<svg xmlns="http://www.w3.org/2000/svg" viewBox="0 0 278.91 72.21"><defs><style>.cls-1{fill:#5d5c60;}.cls-2{fill:#0096c7;}.cls-3{fill:#fff;}</style></defs><g id="Capa_2" data-name="Capa 2"><g id="Capa_1-2" data-name="Capa 1"><path class="cls-1" d="M121.68,42.2H107.39c-.25.71-.52,1.48-.8,2.32s-.56,1.65-.83,2.45-.52,1.55-.77,2.24-.45,1.27-.59,1.73a4.32,4.32,0,0,1-1.76.32,2.66,2.66,0,0,1-1.52-.45,1.65,1.65,0,0,1-.66-1.47,3.14,3.14,0,0,1,.16-1c.1-.34.23-.7.37-1.1.53-1.49,1.22-3.41,2.05-5.76s1.74-4.84,2.72-7.49,2-5.31,3-8,1.94-5.1,2.8-7.23a6.65,6.65,0,0,1,1.27-.42,6.9,6.9,0,0,1,1.76-.22,6.72,6.72,0,0,1,2.06.32,1.81,1.81,0,0,1,1.25,1.07c.85,2.06,1.77,4.42,2.75,7.06s2,5.36,3,8.13,1.94,5.5,2.85,8.19,1.71,5.11,2.42,7.28a3.35,3.35,0,0,1-1,.77,3,3,0,0,1-1.33.29,2.35,2.35,0,0,1-1.55-.45,3.53,3.53,0,0,1-.91-1.52Zm-7.15-20.42c-.39,1.06-.83,2.28-1.33,3.65s-1,2.8-1.55,4.29-1.06,3-1.6,4.53-1,3-1.49,4.38h12q-.81-2.4-1.66-4.83t-1.62-4.66L115.84,25c-.45-1.26-.81-2.33-1.1-3.22Z"/><path class="cls-1" d="M135.83,50.2a2.28,2.28,0,0,1-.66-1.71v-30a4.22,4.22,0,0,1,.82-.24,5.13,5.13,0,0,1,1.2-.14c1.56,0,2.35.66,2.35,2v27h15.3a2.41,2.41,0,0,1,.59,1.76A2.05,2.05,0,0,1,155,50.3a1.63,1.63,0,0,1-1.28.54H137.51A2.38,2.38,0,0,1,135.83,50.2Z"/><path class="cls-1" d="M184,22a1.91,1.91,0,0,1-.45,1.28,2.94,2.94,0,0,1-1,.8,21.75,21.75,0,0,0-3.25-1.81,13.23,13.23,0,0,0-9.39,0,10.28,10.28,0,0,0-3.62,2.5,11.64,11.64,0,0,0-2.43,4.16,17.26,17.26,0,0,0-.88,5.76,17.56,17.56,0,0,0,.85,5.76,11.54,11.54,0,0,0,2.38,4.1A9.49,9.49,0,0,0,169.77,47a13,13,0,0,0,4.74.83,13.83,13.83,0,0,0,4.83-.77,13.55,13.55,0,0,0,3.44-1.84,2.7,2.7,0,0,1,1,.77,1.94,1.94,0,0,1,.48,1.31,2.53,2.53,0,0,1-1.28,2,12.34,12.34,0,0,1-3.36,1.52,18.36,18.36,0,0,1-5.44.67A17.8,17.8,0,0,1,168,50.46a13.56,13.56,0,0,1-5-3.17A14.9,14.9,0,0,1,159.64,42a20.16,20.16,0,0,1-1.23-7.36,20.08,20.08,0,0,1,1.25-7.38A15.43,15.43,0,0,1,163.05,22a13.75,13.75,0,0,1,5-3.2,17,17,0,0,1,6-1.07,20.21,20.21,0,0,1,4,.38,14.38,14.38,0,0,1,3.14,1,6.55,6.55,0,0,1,2,1.39A2.28,2.28,0,0,1,184,22Z"/><path class="cls-1" d="M210.77,42.2H196.48c-.25.71-.52,1.48-.8,2.32L194.85,47c-.26.8-.52,1.55-.77,2.24s-.44,1.27-.59,1.73a4.29,4.29,0,0,1-1.76.32,2.63,2.63,0,0,1-1.51-.45,1.63,1.63,0,0,1-.67-1.47,3.14,3.14,0,0,1,.16-1c.11-.34.23-.7.37-1.1q.81-2.23,2-5.76T194.85,34c1-2.64,2-5.31,3-8s1.95-5.1,2.8-7.23a6.55,6.55,0,0,1,1.28-.42,6.85,6.85,0,0,1,1.76-.22,6.71,6.71,0,0,1,2,.32A1.77,1.77,0,0,1,207,19.54c.86,2.06,1.77,4.42,2.75,7.06s2,5.36,3,8.13,1.94,5.5,2.85,8.19S217.26,48,218,50.2a3.52,3.52,0,0,1-1,.77,3,3,0,0,1-1.33.29,2.37,2.37,0,0,1-1.55-.45,3.53,3.53,0,0,1-.9-1.52Zm-7.15-20.42c-.39,1.06-.83,2.28-1.33,3.65s-1,2.8-1.54,4.29-1.07,3-1.6,4.53-1,3-1.5,4.38h12c-.53-1.6-1.09-3.21-1.65-4.83l-1.63-4.66L204.93,25c-.44-1.26-.81-2.33-1.09-3.22Z"/><path class="cls-1" d="M243.93,42.2H229.64c-.25.71-.51,1.48-.8,2.32s-.56,1.65-.82,2.45-.53,1.55-.78,2.24-.44,1.27-.58,1.73a4.36,4.36,0,0,1-1.76.32,2.64,2.64,0,0,1-1.52-.45,1.63,1.63,0,0,1-.67-1.47,3.46,3.46,0,0,1,.16-1c.11-.34.23-.7.38-1.1Q224,45,225.3,41.5T228,34c1-2.64,2-5.31,3-8s1.95-5.1,2.8-7.23a6.79,6.79,0,0,1,1.28-.42,6.9,6.9,0,0,1,1.76-.22,6.66,6.66,0,0,1,2,.32,1.8,1.8,0,0,1,1.26,1.07c.85,2.06,1.77,4.42,2.74,7.06s2,5.36,3,8.13,2,5.5,2.85,8.19,1.72,5.11,2.43,7.28a3.35,3.35,0,0,1-1,.77,3,3,0,0,1-1.34.29,2.32,2.32,0,0,1-1.54-.45,3.44,3.44,0,0,1-.91-1.52Zm-7.14-20.42c-.39,1.06-.84,2.28-1.33,3.65s-1,2.8-1.55,4.29-1.07,3-1.6,4.53-1,3-1.49,4.38h12q-.8-2.4-1.65-4.83l-1.63-4.66c-.51-1.5-1-2.87-1.44-4.14s-.8-2.33-1.09-3.22Z"/><path class="cls-1" d="M258.09,50.2a2.25,2.25,0,0,1-.67-1.71v-30a4.61,4.61,0,0,1,.83-.24,5.06,5.06,0,0,1,1.2-.14c1.56,0,2.34.66,2.34,2v27H277.1a2.41,2.41,0,0,1,.58,1.76,2.05,2.05,0,0,1-.48,1.44,1.62,1.62,0,0,1-1.28.54H259.77A2.34,2.34,0,0,1,258.09,50.2Z"/><path class="cls-2" d="M31.17,31.88a1,1,0,0,1-.62-.22,22.43,22.43,0,0,1-6.2-7.37c-4.88-9.8.23-22.26.45-22.78A1,1,0,0,1,26,.93c.42.12,10.43,3.11,16.19,9.7a1,1,0,0,1-.7,1.66h-.24c-.12,0-.24,0-.35,0A11.92,11.92,0,0,0,30.37,25.49h0A11.92,11.92,0,0,0,32,30.36a1,1,0,0,1-.86,1.52ZM26.33,3.15c-1,2.93-3.95,12.68-.18,20.24A17.4,17.4,0,0,0,28.57,27c-.08-.42-.15-.86-.2-1.29a14,14,0,0,1,11-15.16C34.89,6.36,28.62,3.94,26.33,3.15Z"/><path class="cls-2" d="M54.29,31.79a1,1,0,0,1-.66-.25,1,1,0,0,1-.2-1.27,11.9,11.9,0,0,0-9.73-18,1,1,0,0,1-.87-.57,1,1,0,0,1,.1-1C48.33,3.33,57.87.18,58.28.05A1,1,0,0,1,59.5.59c.25.55,6,13.48,2,22.86a21.29,21.29,0,0,1-6.6,8.12A1.07,1.07,0,0,1,54.29,31.79ZM45.68,10.45A14,14,0,0,1,57.13,23.69,13.76,13.76,0,0,1,56.84,27a15.75,15.75,0,0,0,2.83-4.36C62.74,15.4,59.21,5.27,58,2.28,55.81,3.14,49.82,5.77,45.68,10.45Z"/><path class="cls-2" d="M73.91,42a1.08,1.08,0,0,1-.38-.08,1,1,0,0,1-.62-.86v-.25c0-.11,0-.23,0-.35A11.91,11.91,0,0,0,59.65,30h0a11.74,11.74,0,0,0-4.86,1.7,1,1,0,0,1-1.31-1.48A22.36,22.36,0,0,1,60.81,24c9.77-4.94,22.26.09,22.79.31a1,1,0,0,1,.58,1.21c-.12.42-3.05,10.45-9.6,16.24A1,1,0,0,1,73.91,42ZM61.06,27.88a13.95,13.95,0,0,1,13.59,11c4.15-4.46,6.54-10.74,7.32-13-2.94-1-12.7-3.87-20.25-.06a17.79,17.79,0,0,0-3.6,2.45c.43-.09.86-.16,1.3-.22h0A15.16,15.16,0,0,1,61.06,27.88ZM59.54,29Z"/><path class="cls-2" d="M69.34,62.46a19.56,19.56,0,0,1-7.46-1.34,21.37,21.37,0,0,1-8.17-6.56,1,1,0,0,1,0-1.29A1,1,0,0,1,55,53.06a11.78,11.78,0,0,0,6.52,1.65A12,12,0,0,0,73,43.22a1,1,0,0,1,1.59-.77c7.35,5.36,10.56,14.88,10.69,15.28A1,1,0,0,1,84.72,59,41.74,41.74,0,0,1,69.34,62.46Zm-11.07-6a16.12,16.12,0,0,0,4.38,2.81c7.28,3,17.39-.57,20.37-1.77-.87-2.21-3.53-8.18-8.24-12.3A14,14,0,0,1,61.61,56.72,13.79,13.79,0,0,1,58.27,56.45Z"/><polygon class="cls-2" points="46.64 32.87 54.25 30.73 52.16 38.36 59.06 42.23 52.19 46.15 54.33 53.76 46.7 51.67 42.84 58.57 38.92 51.7 31.3 53.84 33.39 46.21 26.49 42.34 33.36 38.42 31.22 30.81 38.85 32.9 42.72 26 46.64 32.87"/><path class="cls-2" d="M42.84,59.57a1,1,0,0,1-.88-.5l-3.53-6.19-6.85,1.93a1,1,0,0,1-1.25-1.23l1.88-6.87L26,43.22a1,1,0,0,1,0-1.75l6.18-3.53-1.93-6.85a1,1,0,0,1,1.24-1.25l6.87,1.88,3.48-6.21a1,1,0,0,1,.87-.51h0a1,1,0,0,1,.87.5l3.53,6.19L54,29.76A1,1,0,0,1,55,30a1,1,0,0,1,.26,1l-1.88,6.87,6.21,3.48a1,1,0,0,1,0,1.75l-6.19,3.53,1.93,6.86a1,1,0,0,1-.25,1,1,1,0,0,1-1,.26L47.2,52.85l-3.49,6.21a1,1,0,0,1-.87.51Z"/><path class="cls-2" d="M14.64,63A37.46,37.46,0,0,1,2.18,60.74a1,1,0,0,1-.6-1.2C1.69,59.12,4.49,49,11,43.16A1,1,0,0,1,12,43a1,1,0,0,1,.63.85l0,.23a2.4,2.4,0,0,0,0,.37A11.93,11.93,0,0,0,26.05,54.69h0a11.81,11.81,0,0,0,4.83-1.76,1,1,0,0,1,1.34,1.46A22.52,22.52,0,0,1,25,60.73,22.19,22.19,0,0,1,14.64,63ZM3.79,59.18c3,1,12.76,3.69,20.25-.23a17.85,17.85,0,0,0,3.56-2.5,11.64,11.64,0,0,1-1.29.23h0A14,14,0,0,1,10.93,46C6.83,50.56,4.54,56.87,3.79,59.18Zm22.39-3.49h0Z"/><path class="cls-2" d="M11.54,42.61a1,1,0,0,1-.58-.18C3.54,37.17.19,27.69.06,27.29a1,1,0,0,1,.51-1.23c.54-.26,13.35-6.26,22.81-2.48A21.41,21.41,0,0,1,31.64,30a1,1,0,0,1,0,1.29,1,1,0,0,1-1.27.23A11.89,11.89,0,0,0,12.55,41.63a1,1,0,0,1-.56.87A.88.88,0,0,1,11.54,42.61ZM2.29,27.5c.9,2.2,3.65,8.13,8.42,12.19A14,14,0,0,1,23.71,28a13.78,13.78,0,0,1,3.34.23,15.89,15.89,0,0,0-4.41-2.75C15.32,22.52,5.25,26.26,2.29,27.5Z"/><path class="cls-3" d="M48.18,34c-4.06-.77-5.85,4.51-5.85,4.51s-1.43-5.2-5.5-4.43c-4.82.92-6.09,9,5.5,17.43C53.92,43.09,53,34.89,48.18,34Z"/><path class="cls-2" d="M221.72,61.1V72a1.51,1.51,0,0,1-.31.09,1.61,1.61,0,0,1-.44,0c-.59,0-.89-.25-.89-.75V61.1h-3.81a1.78,1.78,0,0,1-.12-.27,1.25,1.25,0,0,1-.06-.4.81.81,0,0,1,.16-.54.58.58,0,0,1,.47-.19h8.81a1.78,1.78,0,0,1,.12.27,1.16,1.16,0,0,1,.06.38.86.86,0,0,1-.16.55.59.59,0,0,1-.47.2Z"/><path class="cls-2" d="M229.09,71.82a.85.85,0,0,1-.25-.65V60.59a.85.85,0,0,1,.25-.65.88.88,0,0,1,.65-.24h6.75a1.78,1.78,0,0,1,.12.27,1.16,1.16,0,0,1,.06.38.86.86,0,0,1-.16.55.58.58,0,0,1-.47.2h-5.55V65h5.37a1.42,1.42,0,0,1,.12.27,1.16,1.16,0,0,1,.06.38.81.81,0,0,1-.16.54.57.57,0,0,1-.47.19h-4.92v4.27h6.1a2.17,2.17,0,0,1,.12.26,1.14,1.14,0,0,1,.06.39.81.81,0,0,1-.16.54.57.57,0,0,1-.47.19h-6.4A.88.88,0,0,1,229.09,71.82Z"/><path class="cls-2" d="M244.81,66.94l-3.74,5.22a2,2,0,0,1-.41,0A1,1,0,0,1,240,72a.67.67,0,0,1-.25-.54.9.9,0,0,1,.14-.48,6,6,0,0,1,.33-.51l3.58-4.68-4-5.41a1.24,1.24,0,0,1,.33-.58.85.85,0,0,1,.64-.23.8.8,0,0,1,.55.19,2.93,2.93,0,0,1,.47.54l3,4.31,3.6-5a.69.69,0,0,1,.2,0h.23a.89.89,0,0,1,.64.2.68.68,0,0,1,.21.51,1,1,0,0,1-.11.44,4.46,4.46,0,0,1-.28.43c-.57.76-1.14,1.52-1.73,2.28s-1.18,1.53-1.79,2.3l4.09,5.65a1.33,1.33,0,0,1-.32.57.84.84,0,0,1-.61.23.85.85,0,0,1-.54-.17,2.12,2.12,0,0,1-.46-.53Z"/><path class="cls-2" d="M257.93,61.1V72a1.9,1.9,0,0,1-.32.09,1.61,1.61,0,0,1-.44,0c-.59,0-.89-.25-.89-.75V61.1h-3.81a1.78,1.78,0,0,1-.12-.27,1.25,1.25,0,0,1-.06-.4.87.87,0,0,1,.16-.54.58.58,0,0,1,.47-.19h8.81a1.78,1.78,0,0,1,.12.27,1.16,1.16,0,0,1,.06.38.86.86,0,0,1-.16.55.59.59,0,0,1-.47.2Z"/><path class="cls-2" d="M266.41,72.11a1.64,1.64,0,0,1-.45,0q-.9,0-.9-.75V59.74a1.9,1.9,0,0,1,.32-.09,1.66,1.66,0,0,1,.46,0q.87,0,.87.75V72Z"/><path class="cls-2" d="M271.44,71.82a.86.86,0,0,1-.26-.65V59.74a1.9,1.9,0,0,1,.32-.09,1.66,1.66,0,0,1,.46,0c.59,0,.89.25.89.75V70.64h5.84a.9.9,0,0,1,.22.67.81.81,0,0,1-.18.55.6.6,0,0,1-.49.2h-6.16A.89.89,0,0,1,271.44,71.82Z"/></g></g></svg>