<?xml version="1.0" encoding="utf-8"?>
<!-- Generator: Adobe Illustrator 25.0.0, SVG Export Plug-In . SVG Version: 6.00 Build 0)  -->
<svg version="1.1" id="Capa_1" xmlns="http://www.w3.org/2000/svg" xmlns:xlink="http://www.w3.org/1999/xlink" x="0px" y="0px"
	 viewBox="0 0 670.9 180.5" style="enable-background:new 0 0 670.9 180.5;" xml:space="preserve">
<style type="text/css">
	.st0{fill:#5D5C60;}
	.st1{fill:#009ACB;}
</style>
<g>
	<g>
		<g>
			<g>
				<g>
					<path class="st0" d="M293.1,104.8h-34c-0.6,1.7-1.2,3.5-1.9,5.5c-0.7,2-1.3,3.9-2,5.8c-0.6,1.9-1.2,3.7-1.8,5.3
						c-0.6,1.6-1.1,3-1.4,4.1c-1.2,0.5-2.6,0.8-4.2,0.8c-1.4,0-2.6-0.4-3.6-1.1c-1.1-0.7-1.6-1.9-1.6-3.5c0-0.8,0.1-1.5,0.4-2.3
						c0.3-0.8,0.5-1.7,0.9-2.6c1.3-3.6,2.9-8.1,4.9-13.7s4.1-11.5,6.5-17.8c2.3-6.3,4.7-12.6,7.1-19s4.6-12.1,6.7-17.2
						c0.7-0.3,1.7-0.7,3-1c1.4-0.3,2.7-0.5,4.2-0.5c1.7,0,3.3,0.3,4.9,0.8s2.6,1.4,3,2.5c2,4.9,4.2,10.5,6.5,16.8
						c2.3,6.3,4.7,12.7,7,19.3c2.4,6.6,4.6,13.1,6.8,19.5c2.2,6.4,4.1,12.2,5.8,17.3c-0.7,0.8-1.5,1.4-2.4,1.8
						c-0.9,0.5-2,0.7-3.2,0.7c-1.6,0-2.8-0.4-3.7-1.1c-0.8-0.7-1.6-1.9-2.2-3.6L293.1,104.8z M276.1,56.2c-0.9,2.5-2,5.4-3.2,8.7
						c-1.2,3.3-2.4,6.7-3.7,10.2c-1.3,3.6-2.5,7.1-3.8,10.8c-1.3,3.6-2.5,7.1-3.6,10.4h28.5c-1.3-3.8-2.6-7.6-3.9-11.5
						c-1.4-3.8-2.6-7.5-3.9-11.1c-1.2-3.6-2.4-6.8-3.4-9.8c-1.1-3-1.9-5.6-2.6-7.7C276.5,56.2,276.1,56.2,276.1,56.2z"/>
					<path class="st0" d="M326.8,123.8c-1.1-1-1.6-2.4-1.6-4.1V48.4c0.4-0.2,1.1-0.4,2-0.6c0.9-0.2,1.8-0.3,2.9-0.3
						c3.7,0,5.6,1.6,5.6,4.7v64.2H372c0.9,0.9,1.4,2.3,1.4,4.2c0,1.4-0.4,2.6-1.1,3.4c-0.8,0.8-1.8,1.3-3,1.3h-38.4
						C329.2,125.3,327.9,124.8,326.8,123.8z"/>
					<path class="st0" d="M441.3,56.7c0,1.2-0.4,2.2-1.1,3s-1.5,1.5-2.5,1.9c-2.2-1.5-4.8-3-7.7-4.3c-3-1.4-6.8-2-11.5-2
						c-3.9,0-7.5,0.7-10.8,2c-3.3,1.4-6.2,3.3-8.6,6c-2.5,2.6-4.4,5.9-5.8,9.9s-2.1,8.5-2.1,13.7s0.7,9.8,2,13.7
						c1.4,3.9,3.2,7.1,5.6,9.8c2.4,2.6,5.3,4.6,8.7,5.9c3.4,1.3,7.1,2,11.3,2c4.4,0,8.2-0.6,11.5-1.8c3.3-1.2,6-2.7,8.2-4.4
						c0.8,0.3,1.6,1,2.4,1.8c0.8,0.9,1.1,1.9,1.1,3.1c0,1.8-1,3.4-3,4.8c-1.9,1.4-4.6,2.6-8,3.6c-3.4,1.1-7.7,1.6-12.9,1.6
						c-5.3,0-10.3-0.8-14.8-2.5c-4.6-1.7-8.5-4.2-11.9-7.5c-3.3-3.3-6-7.5-7.9-12.5s-2.9-10.8-2.9-17.5s1-12.5,3-17.6
						c2-5,4.7-9.2,8.1-12.6c3.4-3.4,7.3-5.9,11.9-7.6c4.5-1.7,9.3-2.5,14.3-2.5c3.5,0,6.7,0.3,9.6,0.9c2.9,0.6,5.4,1.4,7.5,2.3
						c2.1,1,3.7,2.1,4.8,3.3C440.7,54.3,441.3,55.5,441.3,56.7z"/>
					<path class="st0" d="M505.1,104.8h-34c-0.6,1.7-1.2,3.5-1.9,5.5c-0.7,2-1.3,3.9-2,5.8c-0.6,1.9-1.2,3.7-1.8,5.3
						c-0.6,1.6-1.1,3-1.4,4.1c-1.2,0.5-2.6,0.8-4.2,0.8c-1.4,0-2.6-0.4-3.6-1.1c-1.1-0.7-1.6-1.9-1.6-3.5c0-0.8,0.1-1.5,0.4-2.3
						s0.5-1.7,0.9-2.6c1.3-3.6,2.9-8.1,4.9-13.7s4.1-11.5,6.5-17.8c2.3-6.3,4.7-12.6,7.1-19s4.6-12.1,6.7-17.2c0.7-0.3,1.7-0.7,3-1
						c1.4-0.3,2.7-0.5,4.2-0.5c1.7,0,3.3,0.3,4.9,0.8s2.6,1.4,3,2.5c2,4.9,4.2,10.5,6.5,16.8c2.3,6.3,4.7,12.7,7,19.3
						c2.4,6.6,4.6,13.1,6.8,19.5s4.1,12.2,5.8,17.3c-0.7,0.8-1.5,1.4-2.4,1.8c-0.9,0.5-2,0.7-3.2,0.7c-1.6,0-2.8-0.4-3.7-1.1
						c-0.8-0.7-1.6-1.9-2.2-3.6L505.1,104.8z M488.1,56.2c-0.9,2.5-2,5.4-3.2,8.7c-1.2,3.3-2.4,6.7-3.7,10.2
						c-1.3,3.6-2.5,7.1-3.8,10.8c-1.3,3.6-2.5,7.1-3.6,10.4h28.5c-1.3-3.8-2.6-7.6-3.9-11.5c-1.4-3.8-2.6-7.5-3.9-11.1
						c-1.2-3.6-2.4-6.8-3.4-9.8c-1.1-3-1.9-5.6-2.6-7.7C488.5,56.2,488.1,56.2,488.1,56.2z"/>
					<path class="st0" d="M584,104.8h-34c-0.6,1.7-1.2,3.5-1.9,5.5s-1.3,3.9-2,5.8c-0.6,1.9-1.2,3.7-1.8,5.3c-0.6,1.6-1.1,3-1.4,4.1
						c-1.2,0.5-2.6,0.8-4.2,0.8c-1.4,0-2.6-0.4-3.6-1.1c-1.1-0.7-1.6-1.9-1.6-3.5c0-0.8,0.1-1.5,0.4-2.3c0.3-0.8,0.5-1.7,0.9-2.6
						c1.3-3.6,2.9-8.1,4.9-13.7s4.1-11.5,6.5-17.8c2.3-6.3,4.7-12.6,7.1-19c2.4-6.4,4.6-12.1,6.7-17.2c0.7-0.3,1.7-0.7,3-1
						c1.4-0.3,2.7-0.5,4.2-0.5c1.7,0,3.3,0.3,4.9,0.8c1.6,0.5,2.6,1.4,3,2.5c2,4.9,4.2,10.5,6.5,16.8c2.3,6.3,4.7,12.7,7,19.3
						c2.4,6.6,4.6,13.1,6.8,19.5s4.1,12.2,5.8,17.3c-0.7,0.8-1.5,1.4-2.4,1.8c-0.9,0.5-2,0.7-3.2,0.7c-1.6,0-2.8-0.4-3.7-1.1
						c-0.8-0.7-1.6-1.9-2.2-3.6L584,104.8z M567,56.2c-0.9,2.5-2,5.4-3.2,8.7c-1.2,3.3-2.4,6.7-3.7,10.2c-1.3,3.6-2.5,7.1-3.8,10.8
						c-1.3,3.6-2.5,7.1-3.6,10.4h28.5c-1.3-3.8-2.6-7.6-3.9-11.5c-1.4-3.8-2.6-7.5-3.9-11.1c-1.2-3.6-2.4-6.8-3.4-9.8
						c-1.1-3-1.9-5.6-2.6-7.7C567.4,56.2,567,56.2,567,56.2z"/>
					<path class="st0" d="M617.7,123.8c-1.1-1-1.6-2.4-1.6-4.1V48.4c0.4-0.2,1.1-0.4,2-0.6c0.9-0.2,1.8-0.3,2.9-0.3
						c3.7,0,5.6,1.6,5.6,4.7v64.2H663c0.9,0.9,1.4,2.3,1.4,4.2c0,1.4-0.4,2.6-1.1,3.4c-0.8,0.8-1.8,1.3-3,1.3h-38.4
						C620.1,125.3,618.8,124.8,617.7,123.8z"/>
				</g>
			</g>
		</g>
	</g>
	<g>
		<g>
			<g>
				<g>
					<path class="st1" d="M77.8,80.2c-0.5,0-1.1-0.2-1.5-0.5c-6.6-5.3-11.6-11.2-14.7-17.5C50,38.9,62.1,9.2,62.6,8
						c0.5-1.1,1.7-1.7,2.9-1.4c1,0.3,24.8,7.4,38.5,23.1c0.6,0.7,0.8,1.7,0.4,2.5s-1.2,1.4-2.1,1.5h-0.6c-0.3,0-0.6,0-0.9,0.1
						C85.4,35.4,74.2,49.4,75.9,65l0,0c0.5,4.1,1.8,8,4,11.6c0.6,1,0.4,2.3-0.5,3C78.9,80,78.4,80.2,77.8,80.2z M66.3,11.8
						c-2.5,7-9.4,30.2-0.4,48.2c1.5,3,3.4,5.8,5.8,8.6c-0.2-1-0.4-2-0.5-3.1c-1.9-17.1,9.6-32.6,26.1-36.1
						C86.6,19.5,71.7,13.7,66.3,11.8z"/>
				</g>
			</g>
			<g>
				<g>
					<path class="st1" d="M132.8,80c-0.6,0-1.1-0.2-1.6-0.6c-0.9-0.8-1.1-2-0.5-3c2.8-4.7,4.2-10,4-15.5
						c-0.5-14.8-12.4-26.8-27.2-27.4c-0.9,0-1.7-0.6-2.1-1.4c-0.4-0.8-0.3-1.7,0.2-2.5c12.9-17.4,35.6-24.9,36.5-25.2
						c1.2-0.4,2.4,0.2,2.9,1.3c0.6,1.3,14.2,32.1,4.8,54.4c-2.9,6.8-8.2,13.3-15.7,19.3C133.9,79.8,133.3,80,132.8,80z M112.3,29.2
						c15.1,2.7,26.7,15.8,27.3,31.5c0.1,2.7-0.1,5.3-0.7,7.9c3-3.4,5.3-6.8,6.7-10.4c7.3-17.3-1.1-41.4-3.9-48.5
						C136.4,11.8,122.2,18.1,112.3,29.2z"/>
				</g>
			</g>
		</g>
		<g>
			<g>
				<g>
					<path class="st1" d="M179.5,104.2c-0.3,0-0.6-0.1-0.9-0.2c-0.8-0.3-1.4-1.1-1.5-2v-0.6c0-0.3,0-0.6-0.1-0.8
						c-0.9-7.5-4.6-14.3-10.6-19c-5.9-4.7-13.4-6.8-20.9-5.9l0,0c-4.1,0.5-8,1.8-11.6,4c-1,0.6-2.3,0.4-3-0.4
						c-0.8-0.9-0.8-2.2-0.1-3.1c5.2-6.6,11.1-11.6,17.5-14.8c23.2-11.8,53,0.2,54.2,0.7c1.1,0.5,1.7,1.7,1.4,2.9
						c-0.3,1-7.3,24.9-22.9,38.7C180.6,104,180.1,104.2,179.5,104.2z M148.9,70.7c7.4,0,14.6,2.5,20.5,7.2
						c6.1,4.8,10.2,11.4,11.8,18.9c9.9-10.6,15.6-25.6,17.4-31c-7-2.4-30.2-9.2-48.2-0.1c-3,1.5-5.8,3.4-8.6,5.8
						c1-0.2,2-0.4,3.1-0.5l0,0C146.3,70.8,147.6,70.7,148.9,70.7z M145.3,73.3L145.3,73.3L145.3,73.3z"/>
				</g>
			</g>
			<g>
				<g>
					<path class="st1" d="M168.6,153c-6.1,0-12.2-0.9-17.8-3.2c-6.8-2.8-13.3-8.1-19.4-15.6c-0.7-0.9-0.7-2.2,0.1-3.1
						c0.8-0.9,2-1.1,3-0.5c4.7,2.8,10.1,4.2,15.5,3.9c14.8-0.6,26.7-12.6,27.2-27.3c0-0.9,0.5-1.7,1.3-2.1s1.7-0.3,2.5,0.2
						c17.5,12.8,25.1,35.4,25.4,36.4c0.4,1.2-0.2,2.4-1.3,2.9C204.2,145.1,186.7,153,168.6,153z M142.3,138.7
						c3.4,3,6.9,5.2,10.4,6.7c17.3,7.2,41.4-1.3,48.5-4.2c-2.1-5.3-8.4-19.5-19.6-29.3c-2.6,15.1-15.6,26.8-31.3,27.4
						C147.5,139.4,144.9,139.2,142.3,138.7z"/>
				</g>
			</g>
		</g>
		<g>
			<g>
				<g>
					<path class="st1" d="M38.5,154.3c-15.6,0-28.8-5.1-29.7-5.5c-1.1-0.4-1.7-1.7-1.4-2.9c0.3-1,6.9-25,22.3-39
						c0.7-0.6,1.6-0.8,2.5-0.5c0.8,0.3,1.4,1.1,1.5,2v0.5c0,0.3,0,0.6,0.1,0.9c2,15.5,16.3,26.5,31.8,24.5l0,0
						c4.1-0.5,8-1.9,11.5-4.2c1-0.6,2.3-0.5,3,0.4c0.8,0.9,0.8,2.1,0.1,3.1c-5.1,6.7-10.9,11.8-17.2,15.1
						C55.2,153,46.5,154.3,38.5,154.3z M12.6,145.2c7,2.3,30.4,8.8,48.2-0.5c2.9-1.5,5.8-3.5,8.5-5.9c-1,0.2-2,0.4-3.1,0.5l0,0
						c-17,2.2-32.8-9-36.6-25.4C19.9,124.6,14.4,139.7,12.6,145.2z M65.9,136.9L65.9,136.9L65.9,136.9z"/>
				</g>
			</g>
			<g>
				<g>
					<path class="st1" d="M31.1,105.7c-0.5,0-1-0.1-1.4-0.4C12,92.8,4.1,70.2,3.8,69.3c-0.4-1.2,0.1-2.4,1.2-2.9
						c1.3-0.6,31.8-14.9,54.3-5.9c6.8,2.7,13.5,7.9,19.6,15.3c0.7,0.9,0.7,2.2,0,3.1s-2,1.1-3,0.5c-4.7-2.7-10.1-4-15.6-3.7
						c-14.7,0.8-26.5,13-26.8,27.7c0,0.9-0.5,1.7-1.3,2.1C31.8,105.7,31.5,105.7,31.1,105.7z M9.1,69.8c2.2,5.2,8.7,19.3,20,29
						c2.4-15.2,15.2-27,30.9-27.9c2.7-0.1,5.3,0,7.9,0.5c-3.4-2.9-6.9-5.1-10.5-6.5C40.1,57.9,16.1,66.8,9.1,69.8z"/>
				</g>
			</g>
		</g>
		<path class="st1" d="M145.3,102.7l-14.8-8.3l4.5-16.3c0.2-0.8,0-1.7-0.6-2.3c-0.6-0.6-1.5-0.8-2.3-0.6l-16.3,4.6L107.3,65
			c-0.4-0.7-1.2-1.2-2.1-1.2l0,0c-0.9,0-1.7,0.5-2.1,1.2l-8.3,14.8l-16.3-4.5c-0.8-0.2-1.7,0-2.3,0.6c-0.6,0.6-0.8,1.5-0.6,2.3
			l4.6,16.3L65.5,103c-0.7,0.4-1.2,1.2-1.2,2.1s0.5,1.7,1.2,2.1l14.8,8.3l-4.5,16.3c-0.2,0.8,0,1.7,0.6,2.3s1.5,0.8,2.3,0.6
			l16.3-4.6l8.4,14.7c0.4,0.7,1.2,1.2,2.1,1.2l0,0c0.9,0,1.7-0.5,2.1-1.2l8.3-14.8l16.3,4.5c0.8,0.2,1.7,0,2.3-0.6s0.8-1.5,0.6-2.3
			l-4.6-16.3l14.7-8.4c0.7-0.4,1.2-1.2,1.2-2.1C146.5,104,146.1,103.2,145.3,102.7z M104.3,126.8c-27.6-20-24.6-39.3-13.1-41.5
			c9.7-1.8,13.1,10.5,13.1,10.5s4.3-12.6,13.9-10.7C129.7,87.4,131.9,106.9,104.3,126.8z"/>
	</g>
	<g>
		<path class="st1" d="M531.2,149.6v26c-0.2,0.1-0.4,0.1-0.8,0.2c-0.3,0.1-0.7,0.1-1,0.1c-1.4,0-2.1-0.6-2.1-1.8v-24.5h-9
			c-0.1-0.2-0.2-0.4-0.3-0.7c-0.1-0.3-0.1-0.6-0.1-0.9c0-0.5,0.1-1,0.4-1.3c0.3-0.3,0.6-0.5,1.1-0.5h21c0.1,0.2,0.2,0.4,0.3,0.7
			c0.1,0.3,0.1,0.6,0.1,0.9c0,0.5-0.1,1-0.4,1.3c-0.3,0.3-0.6,0.5-1.1,0.5H531.2z"/>
		<path class="st1" d="M548.7,175.1c-0.4-0.4-0.6-0.9-0.6-1.5v-25.2c0-0.6,0.2-1.2,0.6-1.5c0.4-0.4,0.9-0.6,1.5-0.6h16.1
			c0.1,0.2,0.2,0.4,0.3,0.7c0.1,0.3,0.1,0.6,0.1,0.9c0,0.5-0.1,1-0.4,1.3c-0.3,0.3-0.6,0.5-1.1,0.5H552v9.3h12.8
			c0.1,0.2,0.2,0.4,0.3,0.7c0.1,0.3,0.1,0.6,0.1,0.9c0,0.5-0.1,1-0.4,1.3c-0.3,0.3-0.6,0.5-1.1,0.5H552v10.2h14.5
			c0.1,0.2,0.2,0.4,0.3,0.6c0.1,0.3,0.1,0.6,0.1,0.9c0,0.5-0.1,1-0.4,1.3c-0.3,0.3-0.6,0.5-1.1,0.5h-15.2
			C549.6,175.7,549.1,175.5,548.7,175.1z"/>
		<path class="st1" d="M586.1,163.5l-8.9,12.4c-0.3,0.1-0.6,0.1-1,0.1c-0.6,0-1.2-0.2-1.5-0.5c-0.4-0.3-0.6-0.7-0.6-1.3
			c0-0.4,0.1-0.8,0.3-1.2c0.2-0.4,0.5-0.8,0.8-1.2l8.5-11.1l-9.4-12.9c0.2-0.5,0.4-1,0.8-1.4c0.4-0.4,0.9-0.6,1.5-0.6
			c0.5,0,1,0.2,1.3,0.5c0.4,0.3,0.7,0.7,1.1,1.3l7.2,10.3l8.6-11.9c0.2,0,0.3-0.1,0.5-0.1c0.2,0,0.3,0,0.5,0c0.7,0,1.2,0.2,1.5,0.5
			c0.3,0.3,0.5,0.7,0.5,1.2c0,0.4-0.1,0.7-0.3,1c-0.2,0.3-0.4,0.7-0.7,1c-1.4,1.8-2.7,3.6-4.1,5.4c-1.4,1.8-2.8,3.6-4.3,5.5
			l9.7,13.5c-0.2,0.5-0.4,1-0.8,1.4c-0.4,0.4-0.8,0.5-1.5,0.5c-0.5,0-0.9-0.1-1.3-0.4c-0.3-0.3-0.7-0.7-1.1-1.3L586.1,163.5z"/>
		<path class="st1" d="M617.3,149.6v26c-0.2,0.1-0.4,0.1-0.8,0.2c-0.3,0.1-0.7,0.1-1,0.1c-1.4,0-2.1-0.6-2.1-1.8v-24.5h-9
			c-0.1-0.2-0.2-0.4-0.3-0.7c-0.1-0.3-0.1-0.6-0.1-0.9c0-0.5,0.1-1,0.4-1.3c0.3-0.3,0.6-0.5,1.1-0.5h21c0.1,0.2,0.2,0.4,0.3,0.7
			c0.1,0.3,0.1,0.6,0.1,0.9c0,0.5-0.1,1-0.4,1.3c-0.3,0.3-0.6,0.5-1.1,0.5H617.3z"/>
		<path class="st1" d="M637.5,175.8c-0.3,0.1-0.7,0.1-1.1,0.1c-1.4,0-2.1-0.6-2.1-1.8v-27.8c0.2-0.1,0.4-0.1,0.8-0.2
			c0.3-0.1,0.7-0.1,1.1-0.1c1.4,0,2.1,0.6,2.1,1.8v27.8C638.1,175.7,637.8,175.8,637.5,175.8z"/>
		<path class="st1" d="M649.5,175.1c-0.4-0.4-0.6-0.9-0.6-1.5v-27.2c0.2-0.1,0.4-0.1,0.7-0.2c0.3-0.1,0.7-0.1,1.1-0.1
			c1.4,0,2.1,0.6,2.1,1.8v24.5h13.9c0.4,0.4,0.5,0.9,0.5,1.6c0,0.5-0.1,1-0.4,1.3c-0.3,0.3-0.7,0.5-1.2,0.5H651
			C650.4,175.7,649.9,175.5,649.5,175.1z"/>
		<g>
			<path class="st1" d="M557.9,138.8c-0.6,0.6-1.2,1.2-2,2c-0.8,0.8-1.6,1.6-2.6,2.5c-0.6-0.1-1-0.2-1.4-0.5
				c-0.4-0.3-0.5-0.6-0.5-1.1c0-0.4,0.1-0.7,0.4-1c0.2-0.3,0.5-0.6,0.9-1l2.9-2.9c0.7-0.7,1.5-1.1,2.3-1.1c0.5,0,1,0.1,1.3,0.3
				c0.4,0.2,0.7,0.5,1.1,1l4,4.6c0,0.5-0.2,0.9-0.5,1.2c-0.3,0.3-0.7,0.5-1.2,0.5c-0.4,0-0.7-0.1-1-0.3c-0.3-0.2-0.7-0.6-1.2-1.1
				L557.9,138.8z"/>
		</g>
	</g>
</g>
</svg>
