<svg xmlns="http://www.w3.org/2000/svg" viewBox="0 0 247.81 64.15"><defs><style>.cls-1{fill:#fff;}</style></defs><g id="Capa_2" data-name="Capa 2"><g id="Capa_1-2" data-name="Capa 1"><path class="cls-1" d="M108.11,37.49H95.41c-.22.64-.46,1.32-.71,2.06S94.2,41,94,41.73s-.47,1.38-.69,2-.4,1.13-.52,1.54a3.91,3.91,0,0,1-1.56.29,2.32,2.32,0,0,1-1.35-.41,1.44,1.44,0,0,1-.6-1.3A2.81,2.81,0,0,1,89.4,43c.09-.3.2-.62.33-1l1.82-5.11q1.11-3.14,2.42-6.66c.86-2.35,1.75-4.72,2.65-7.1s1.73-4.53,2.49-6.42a5.22,5.22,0,0,1,1.13-.38,6.31,6.31,0,0,1,1.57-.19,5.82,5.82,0,0,1,1.82.28,1.59,1.59,0,0,1,1.11.95q1.14,2.75,2.44,6.28t2.63,7.22c.89,2.46,1.73,4.89,2.54,7.27s1.52,4.54,2.15,6.47a3.08,3.08,0,0,1-.9.69,2.66,2.66,0,0,1-1.18.26,2.08,2.08,0,0,1-1.38-.41,3,3,0,0,1-.8-1.35Zm-6.35-18.14c-.35.95-.74,2-1.18,3.24s-.9,2.49-1.38,3.82-1,2.67-1.42,4-.92,2.66-1.33,3.89h10.66q-.7-2.13-1.47-4.29l-1.44-4.14c-.46-1.33-.89-2.55-1.28-3.67s-.72-2.08-1-2.87Z"/><path class="cls-1" d="M120.68,44.6a2,2,0,0,1-.59-1.52V16.46a7.07,7.07,0,0,1,.74-.21,4.47,4.47,0,0,1,1.06-.12c1.39,0,2.09.58,2.09,1.75v24h13.59a2.12,2.12,0,0,1,.52,1.56,1.85,1.85,0,0,1-.42,1.28,1.47,1.47,0,0,1-1.14.48H122.18A2.09,2.09,0,0,1,120.68,44.6Z"/><path class="cls-1" d="M163.44,19.54a1.76,1.76,0,0,1-.4,1.14,2.75,2.75,0,0,1-.93.71,18,18,0,0,0-2.89-1.61,10.34,10.34,0,0,0-4.31-.76,10.48,10.48,0,0,0-4,.76A9,9,0,0,0,147.66,22a10.38,10.38,0,0,0-2.15,3.7,15.41,15.41,0,0,0-.78,5.11,15.74,15.74,0,0,0,.75,5.12,10.44,10.44,0,0,0,2.11,3.65,8.49,8.49,0,0,0,3.25,2.2,11.56,11.56,0,0,0,4.21.73,11.73,11.73,0,0,0,7.35-2.32,2.53,2.53,0,0,1,.9.69,1.74,1.74,0,0,1,.42,1.16,2.25,2.25,0,0,1-1.14,1.8,10.69,10.69,0,0,1-3,1.35,16.31,16.31,0,0,1-4.83.59,15.83,15.83,0,0,1-5.54-.94A12.26,12.26,0,0,1,144.8,42a13.29,13.29,0,0,1-3-4.67,17.85,17.85,0,0,1-1.09-6.54,17.85,17.85,0,0,1,1.11-6.56,13.48,13.48,0,0,1,3-4.71,12.25,12.25,0,0,1,4.43-2.84,14.89,14.89,0,0,1,5.33-.95,18.06,18.06,0,0,1,3.57.33A12.16,12.16,0,0,1,161,17a5.79,5.79,0,0,1,1.8,1.23A2.06,2.06,0,0,1,163.44,19.54Z"/><path class="cls-1" d="M187.27,37.49h-12.7c-.22.64-.46,1.32-.71,2.06s-.5,1.47-.74,2.18-.46,1.38-.68,2-.4,1.13-.52,1.54a4,4,0,0,1-1.57.29,2.36,2.36,0,0,1-1.35-.41,1.46,1.46,0,0,1-.59-1.3,3.1,3.1,0,0,1,.14-.88l.33-1c.48-1.32,1.09-3,1.83-5.11s1.55-4.31,2.41-6.66,1.76-4.72,2.66-7.1,1.73-4.53,2.48-6.42a5.54,5.54,0,0,1,1.14-.38,6.29,6.29,0,0,1,1.56-.19,5.88,5.88,0,0,1,1.83.28,1.61,1.61,0,0,1,1.11.95q1.14,2.75,2.44,6.28T189,30.86c.88,2.46,1.73,4.89,2.54,7.27s1.52,4.54,2.15,6.47a3.08,3.08,0,0,1-.9.69,2.66,2.66,0,0,1-1.18.26,2.08,2.08,0,0,1-1.38-.41,3,3,0,0,1-.8-1.35Zm-6.35-18.14c-.35.95-.74,2-1.19,3.24s-.9,2.49-1.37,3.82-1,2.67-1.42,4-.92,2.66-1.33,3.89h10.66q-.71-2.13-1.47-4.29c-.5-1.43-1-2.82-1.44-4.14s-.89-2.55-1.28-3.67-.72-2.08-1-2.87Z"/><path class="cls-1" d="M216.73,37.49H204c-.23.64-.46,1.32-.72,2.06l-.73,2.18c-.24.71-.47,1.38-.69,2s-.39,1.13-.52,1.54a3.91,3.91,0,0,1-1.56.29,2.32,2.32,0,0,1-1.35-.41,1.43,1.43,0,0,1-.59-1.3A2.78,2.78,0,0,1,198,43c.09-.3.2-.62.33-1l1.82-5.11c.75-2.09,1.55-4.31,2.42-6.66s1.75-4.72,2.65-7.1,1.73-4.53,2.49-6.42a5.15,5.15,0,0,1,1.14-.38,6.17,6.17,0,0,1,1.56-.19,5.82,5.82,0,0,1,1.82.28,1.61,1.61,0,0,1,1.12.95c.75,1.83,1.57,3.92,2.44,6.28s1.74,4.76,2.63,7.22,1.73,4.89,2.53,7.27,1.52,4.54,2.16,6.47a3.37,3.37,0,0,1-.9.69,2.7,2.7,0,0,1-1.19.26,2,2,0,0,1-1.37-.41,2.94,2.94,0,0,1-.81-1.35Zm-6.35-18.14c-.35.95-.74,2-1.18,3.24l-1.38,3.82c-.47,1.32-.94,2.67-1.42,4s-.91,2.66-1.32,3.89h10.66Q215,32.19,214.27,30c-.51-1.43-1-2.82-1.45-4.14s-.88-2.55-1.28-3.67-.72-2.08-1-2.87Z"/><path class="cls-1" d="M229.31,44.6a2,2,0,0,1-.59-1.52V16.46a6.11,6.11,0,0,1,.73-.21,4.55,4.55,0,0,1,1.07-.12c1.39,0,2.08.58,2.08,1.75v24h13.6a2.16,2.16,0,0,1,.52,1.56,1.85,1.85,0,0,1-.43,1.28,1.44,1.44,0,0,1-1.14.48H230.8A2.05,2.05,0,0,1,229.31,44.6Z"/><path class="cls-1" d="M27.7,28.33a.89.89,0,0,1-.56-.2,19.68,19.68,0,0,1-5.5-6.55c-4.34-8.7.19-19.78.39-20.24A.89.89,0,0,1,23.11.83c.37.11,9.27,2.76,14.38,8.61a.89.89,0,0,1-.62,1.48h-.21l-.32,0A10.61,10.61,0,0,0,27,22.65h0A10.55,10.55,0,0,0,28.46,27a.89.89,0,0,1-.17,1.13A.89.89,0,0,1,27.7,28.33ZM23.39,2.8c-.92,2.6-3.51,11.26-.15,18A15.6,15.6,0,0,0,25.39,24c-.08-.38-.14-.76-.19-1.15A12.41,12.41,0,0,1,34.94,9.37C31,5.65,25.43,3.5,23.39,2.8Z"/><path class="cls-1" d="M48.24,28.24a.89.89,0,0,1-.77-1.35A10.51,10.51,0,0,0,49,21.11,10.63,10.63,0,0,0,38.82,10.88a.86.86,0,0,1-.76-.5.9.9,0,0,1,.08-.92C42.94,3,51.42.16,51.78,0a.9.9,0,0,1,1.09.49c.22.48,5.32,12,1.79,20.3a18.91,18.91,0,0,1-5.87,7.22A.88.88,0,0,1,48.24,28.24Zm-7.66-19A12.44,12.44,0,0,1,50.76,21.05a12.74,12.74,0,0,1-.26,3A14.38,14.38,0,0,0,53,20.14C55.75,13.68,52.6,4.68,51.56,2A29.75,29.75,0,0,0,40.58,9.28Z"/><path class="cls-1" d="M65.67,37.29a1,1,0,0,1-.34-.07.9.9,0,0,1-.55-.77v-.21c0-.11,0-.21,0-.32A10.59,10.59,0,0,0,53,26.63h0a10.58,10.58,0,0,0-4.32,1.5A.89.89,0,0,1,47.55,28a.91.91,0,0,1,0-1.15A19.86,19.86,0,0,1,54,21.28c8.68-4.39,19.78.08,20.25.27a.91.91,0,0,1,.52,1.08c-.11.37-2.72,9.29-8.54,14.43A.86.86,0,0,1,65.67,37.29ZM54.25,24.77a12.37,12.37,0,0,1,12.07,9.74c3.69-4,5.82-9.54,6.51-11.59-2.61-.9-11.29-3.44-18-.05A15.85,15.85,0,0,0,51.64,25c.38-.08.77-.14,1.15-.19h0A14.44,14.44,0,0,1,54.25,24.77Zm-1.35,1Z"/><path class="cls-1" d="M61.61,55.5A17.24,17.24,0,0,1,55,54.3a19,19,0,0,1-7.26-5.83.89.89,0,0,1,1.15-1.33,10.57,10.57,0,0,0,16-8.74.89.89,0,0,1,.5-.77.92.92,0,0,1,.92.08c6.53,4.76,9.38,13.23,9.5,13.58a.91.91,0,0,1-.48,1.1A37.22,37.22,0,0,1,61.61,55.5Zm-9.84-5.35a14.14,14.14,0,0,0,3.89,2.5c6.47,2.69,15.45-.5,18.1-1.57a29.85,29.85,0,0,0-7.32-10.93A12.43,12.43,0,0,1,54.74,50.4,12.3,12.3,0,0,1,51.77,50.15Z"/><path class="cls-1" d="M13,56A33.28,33.28,0,0,1,1.94,54,.9.9,0,0,1,1.4,52.9c.11-.38,2.58-9.33,8.33-14.55a.88.88,0,0,1,.93-.17.87.87,0,0,1,.56.76l0,.2c0,.11,0,.21,0,.32a10.6,10.6,0,0,0,11.88,9.13h0A10.49,10.49,0,0,0,27.44,47a.89.89,0,0,1,1.18,1.29A19.81,19.81,0,0,1,22.18,54,19.76,19.76,0,0,1,13,56ZM3.37,52.58c2.62.86,11.33,3.28,18-.21a15.72,15.72,0,0,0,3.16-2.21c-.38.08-.76.15-1.15.2h0A12.39,12.39,0,0,1,9.71,40.9C6.07,44.92,4,50.53,3.37,52.58Zm19.89-3.1h0Z"/><path class="cls-1" d="M10.25,37.86a.86.86,0,0,1-.51-.16C3.14,33,.17,24.61.05,24.25a.9.9,0,0,1,.46-1.1C1,22.92,12.37,17.6,20.78,21a19,19,0,0,1,7.33,5.73.89.89,0,0,1,0,1.14A.88.88,0,0,1,27,28a10.57,10.57,0,0,0-15.83,9,.91.91,0,0,1-.49.78A1,1,0,0,1,10.25,37.86ZM2,24.43A29.79,29.79,0,0,0,9.51,35.26,12.43,12.43,0,0,1,21.07,24.85a12.84,12.84,0,0,1,3,.2,14.42,14.42,0,0,0-3.93-2.44C13.61,20,4.67,23.33,2,24.43Z"/><path class="cls-1" d="M52.91,36.74l-5.52-3.1,1.67-6.1a.88.88,0,0,0-.23-.87.9.9,0,0,0-.87-.23l-6.09,1.72-3.14-5.5a.9.9,0,0,0-.78-.45h0a.88.88,0,0,0-.77.46l-3.1,5.51L28,26.52a.87.87,0,0,0-.87.23.88.88,0,0,0-.23.87l1.71,6.09L23.1,36.85a.89.89,0,0,0,0,1.55l5.52,3.1L27,47.6a.9.9,0,0,0,1.11,1.1L34.15,47l3.13,5.5a.9.9,0,0,0,.78.45h0a.91.91,0,0,0,.78-.46L41.93,47,48,48.62a.88.88,0,0,0,.87-.23.9.9,0,0,0,.22-.87l-1.71-6.09,5.5-3.14a.89.89,0,0,0,0-1.55Zm-15.3,9c-10.3-7.46-9.17-14.67-4.88-15.49,3.61-.68,4.88,3.94,4.88,3.94s1.59-4.69,5.2-4C47.1,31,47.91,38.28,37.61,45.74Z"/><path class="cls-1" d="M197,54.29V64a1.43,1.43,0,0,1-.28.08,1.74,1.74,0,0,1-.39.05c-.53,0-.79-.23-.79-.67V54.29h-3.38a.84.84,0,0,1-.11-.25,1,1,0,0,1-.06-.35.73.73,0,0,1,.15-.48.51.51,0,0,1,.41-.17h7.83c0,.06.07.14.11.24a1.27,1.27,0,0,1,0,.34.81.81,0,0,1-.14.49.52.52,0,0,1-.42.18Z"/><path class="cls-1" d="M203.54,63.81a.8.8,0,0,1-.22-.58V53.84a.76.76,0,0,1,.8-.8h6c0,.06.07.14.11.24a1.27,1.27,0,0,1,.05.34.81.81,0,0,1-.14.49.52.52,0,0,1-.42.18h-4.93v3.48h4.77l.11.25a1.14,1.14,0,0,1,.05.33.74.74,0,0,1-.14.48.51.51,0,0,1-.42.17h-4.37v3.8h5.42l.11.23a1.18,1.18,0,0,1,.05.35.78.78,0,0,1-.14.48.54.54,0,0,1-.42.17h-5.69A.82.82,0,0,1,203.54,63.81Z"/><path class="cls-1" d="M217.51,59.47l-3.33,4.65a2.19,2.19,0,0,1-.36,0,.89.89,0,0,1-.58-.17.57.57,0,0,1-.21-.48.92.92,0,0,1,.11-.43l.3-.45,3.18-4.16-3.52-4.81a1.19,1.19,0,0,1,.3-.51.77.77,0,0,1,.57-.21.72.72,0,0,1,.48.17,2.57,2.57,0,0,1,.42.48l2.67,3.83,3.2-4.42.18,0h.2a.8.8,0,0,1,.57.18.58.58,0,0,1,.19.45.78.78,0,0,1-.1.39,2.74,2.74,0,0,1-.24.39c-.51.67-1,1.35-1.54,2l-1.59,2,3.63,5a1.09,1.09,0,0,1-.29.5.69.69,0,0,1-.54.2.76.76,0,0,1-.48-.14,2,2,0,0,1-.4-.47Z"/><path class="cls-1" d="M229.16,54.29V64a1.43,1.43,0,0,1-.28.08,1.6,1.6,0,0,1-.39.05c-.53,0-.79-.23-.79-.67V54.29h-3.38a1.15,1.15,0,0,1-.16-.6.78.78,0,0,1,.14-.48.54.54,0,0,1,.42-.17h7.82a1.38,1.38,0,0,1,.11.24,1,1,0,0,1,0,.34.75.75,0,0,1-.14.49.52.52,0,0,1-.42.18Z"/><path class="cls-1" d="M236.7,64.07a1.68,1.68,0,0,1-.4.05c-.53,0-.79-.23-.79-.67V53.08a1.43,1.43,0,0,1,.28-.08,1.68,1.68,0,0,1,.4,0c.52,0,.78.22.78.67V64A1.52,1.52,0,0,1,236.7,64.07Z"/><path class="cls-1" d="M241.17,63.81a.77.77,0,0,1-.23-.58V53.08a1.68,1.68,0,0,1,.28-.08,1.84,1.84,0,0,1,.41,0c.53,0,.8.22.8.67v9.14h5.18a.82.82,0,0,1,.2.6.71.71,0,0,1-.16.49.57.57,0,0,1-.44.18h-5.47A.81.81,0,0,1,241.17,63.81Z"/></g></g></svg>